<svg xmlns="http://www.w3.org/2000/svg" xmlns:xlink="http://www.w3.org/1999/xlink" viewBox="0 0 900 398.26"><defs><style>.cls-1{fill:none;}.cls-2{fill:#0d8543;stroke:#231f20;stroke-miterlimit:10;stroke-width:0.64px;}.cls-3{clip-path:url(#clip-path);}.cls-4{fill:#fff;}</style><clipPath id="clip-path"><rect class="cls-1" width="900" height="398.26"/></clipPath></defs><title>IRMA White Logo</title><g id="Layer_3" data-name="Layer 3"><rect class="cls-2" x="-1.62" width="900" height="398.26"/><g class="cls-3"><path class="cls-4" d="M162.43,123.49a12.91,12.91,0,1,1-3.78-9.15A12.47,12.47,0,0,1,162.43,123.49Zm-23,162.92V158.52h20.35V286.41Z"/><path class="cls-4" d="M255.26,178.57a21.19,21.19,0,0,0-13.63,4.51,38.57,38.57,0,0,0-9.45,11,55.66,55.66,0,0,0-7.26,28.34v64H204.57V158.52h20.35V185l.87-5.23Q236,155.9,257.47,155.9a32,32,0,0,1,12.79,2.62V185Q263.23,178.57,255.26,178.57Z"/><path class="cls-4" d="M457.15,205.9q0-19.85-12.5-27.76-4.35-2.76-13.37-2.76a29.85,29.85,0,0,0-16.86,5.23A39.27,39.27,0,0,0,401.93,194a52.51,52.51,0,0,0-3.34,7c.09,1.6.14,3.24.14,4.92v79.93H378.38V205.9q0-19.85-12.5-27.76-4.35-2.76-13.37-2.76a29.85,29.85,0,0,0-16.86,5.23A39.27,39.27,0,0,0,323.16,194q-6.23,10.88-7.85,26.41v65.44H295V157.94h20.35v20.38a52.11,52.11,0,0,1,14.39-16A38.76,38.76,0,0,1,353.09,155q13.38,0,21.51,4.21a40.11,40.11,0,0,1,13.52,11.19,46.19,46.19,0,0,1,5.37,8.9,52.54,52.54,0,0,1,15-17A38.76,38.76,0,0,1,431.86,155q13.38,0,21.51,4.21a40,40,0,0,1,13.52,11.19Q477.5,184.2,477.5,205.9v79.93H457.15Z"/><path class="cls-4" d="M618.46,286.41V264.57q-1.71,2.24-3.63,4.4-18.12,20.34-44.62,20.35T525.6,269Q508,249.23,508,222.46T525.6,176q18.12-20.36,44.61-20.35T614.83,176c1.28,1.44,2.49,2.9,3.63,4.4V158.52h20.35V286.41Zm-12.93-96.5a44,44,0,0,0-64.24,0,47.45,47.45,0,0,0,0,65.11,44,44,0,0,0,64.24,0,47.45,47.45,0,0,0,0-65.11Z"/><path class="cls-4" d="M728.47,236a167.3,167.3,0,0,1-10.93,59.66,14.81,14.81,0,0,0-5.29,1.13,269.37,269.37,0,0,0,8-45.1q1.09-12.18,1.11-24.63a272.55,272.55,0,0,0-5.7-55.56,269.15,269.15,0,0,0-8.44-31.09,166.52,166.52,0,0,1,15.91,53.29A167.54,167.54,0,0,1,728.47,236Z"/><circle class="cls-4" cx="702.05" cy="116.65" r="9.34"/><path class="cls-4" d="M700.49,107.25c-.38.39-.77.78-1.16,1.16-.44-.11-.88-.22-1.31-.35A9.07,9.07,0,0,1,700.49,107.25Z"/><path class="cls-4" d="M700.49,107.25c-.38.39-.77.78-1.16,1.16-.44-.11-.88-.22-1.31-.35A9.07,9.07,0,0,1,700.49,107.25Z"/><path class="cls-4" d="M686.5,124.67A39.56,39.56,0,0,1,656,135.92h0a39.51,39.51,0,0,1-4.56-.59,15.12,15.12,0,0,1-10.54-17.86,14.77,14.77,0,0,1,1.12-3.22A15.14,15.14,0,0,1,645.18,98a39.27,39.27,0,0,1,17.73-2.9A41.28,41.28,0,0,1,669,96a39.44,39.44,0,0,1,24.38,17,40.34,40.34,0,0,0-39.66-9.41,66.37,66.37,0,0,1,36.39,10l-29.91,1.56,29.24,4.79a60.28,60.28,0,0,1-31.65,7.62A38.56,38.56,0,0,0,686.5,124.67Z"/><path class="cls-4" d="M704.42,168v0a40.55,40.55,0,0,1-2.12,4.08,15.1,15.1,0,0,1-23,1.64,15.1,15.1,0,0,1-14.17-8.55,39.55,39.55,0,0,1,29.22-39.84,5.15,5.15,0,0,0,.45.32,37,37,0,0,0-21.55,34.07,60.38,60.38,0,0,1,20.87-30.61l-7.41,28.72,13.52-25.78a58.31,58.31,0,0,1-1.89,32.55,36.18,36.18,0,0,0,4.82-31.45A39.57,39.57,0,0,1,704.42,168Z"/><path class="cls-4" d="M747.9,156.85a14.46,14.46,0,0,1-3.1,1.43,15.13,15.13,0,0,1-13.89,9,39.18,39.18,0,0,1-14.41-10.73,40.25,40.25,0,0,1-3.58-5,39.38,39.38,0,0,1-5.69-22.64,35,35,0,0,0,23.55,25.63,57,57,0,0,1-21.33-29.17l24.27,16-19.38-20.75a56.53,56.53,0,0,1,29.78,12,34.87,34.87,0,0,0-19.67-13.36,39.54,39.54,0,0,1,26.2,13.91l0,0a37.52,37.52,0,0,1,2.74,3.69A15.12,15.12,0,0,1,747.9,156.85Z"/><path class="cls-4" d="M759.37,102.89a39.49,39.49,0,0,1-14.81,10.17,40.58,40.58,0,0,1-5.89,1.78,39.76,39.76,0,0,1-12.72.72,45.18,45.18,0,0,0,7-1.76,42.23,42.23,0,0,0,20.18-14.4,70.58,70.58,0,0,1-38,13.41l-.45-.18,25.43-19.86L711,106.59a65.26,65.26,0,0,1,23.48-26.74c-13.29,4.58-22.82,14.89-26.18,26.67a39.6,39.6,0,0,1,25.12-33.34h0a38.61,38.61,0,0,1,4.38-1.41,15.1,15.1,0,0,1,17.49,15.07,15.14,15.14,0,0,1,4,16Z"/><path class="cls-4" d="M708.21,95.67a39,39,0,0,0,.26-4.61A38.22,38.22,0,0,0,702,69.57a64.26,64.26,0,0,1,.88,34.93c-.32.4-.65.8-1,1.18l-9.35-26.86,3.33,28.57c-.18,0-.35-.12-.54-.19A59.14,59.14,0,0,1,679.9,79.87a37.88,37.88,0,0,0,8.48,24A39.54,39.54,0,0,1,669.69,76v0a36.42,36.42,0,0,1-.43-4.58,15.1,15.1,0,0,1,18.48-13.84,15.09,15.09,0,0,1,16.54-.47A39.22,39.22,0,0,1,711,73.74a39.93,39.93,0,0,1,.47,6.13A39.46,39.46,0,0,1,708.21,95.67Z"/><path class="cls-4" d="M633.77,343.11V322.67h12.14v1.95h-10v7.28h9.74v2h-9.74v7.28h10v1.95Z"/><path class="cls-4" d="M660.94,343.11v-2.26a5.45,5.45,0,0,1-.38.46,6.11,6.11,0,0,1-9.22,0,7.27,7.27,0,0,1,0-9.62,6.09,6.09,0,0,1,9.22,0,5.32,5.32,0,0,1,.38.45V320.56H663v22.55Zm-1.34-10a4.55,4.55,0,0,0-6.64,0,4.9,4.9,0,0,0,0,6.73,4.53,4.53,0,0,0,6.64,0,4.9,4.9,0,0,0,0-6.73Z"/><path class="cls-4" d="M672.27,343.38a4.31,4.31,0,0,1-3.47-1.47,5.59,5.59,0,0,1-1.25-3.76v-8.27h2.11v8.27a4,4,0,0,0,.58,2.21,2.13,2.13,0,0,0,1.94.92,3.87,3.87,0,0,0,3.49-1.56,7.78,7.78,0,0,0,1-4.31v-5.53h2.11v13.23h-2.11v-2.27A4.81,4.81,0,0,1,672.27,343.38Z"/><path class="cls-4" d="M692.92,334.63a4.64,4.64,0,0,0-1.68-2,4.06,4.06,0,0,0-2.31-.78,4.93,4.93,0,0,0-2,.37,4.77,4.77,0,0,0-1.46,7.64,4.45,4.45,0,0,0,5.59.73,4.58,4.58,0,0,0,1.67-1.77h2.38a6.65,6.65,0,0,1-4.3,4.28,6.81,6.81,0,0,1-2.25.35,6,6,0,0,1-2.5-.56,7,7,0,0,1-2.13-11.19,6.4,6.4,0,0,1,4.81-2.05,6.51,6.51,0,0,1,4.1,1.42,6.67,6.67,0,0,1,2.39,3.6Z"/><path class="cls-4" d="M709,343.11v-2.26c-.12.16-.25.31-.38.46a6.12,6.12,0,0,1-9.23,0,7.27,7.27,0,0,1,0-9.62,6.1,6.1,0,0,1,9.23,0c.13.14.26.3.38.45v-2.26h2.1v13.23Zm-1.34-10a4.55,4.55,0,0,0-6.64,0,4.9,4.9,0,0,0,0,6.73,4.53,4.53,0,0,0,6.64,0,4.9,4.9,0,0,0,0-6.73Z"/><path class="cls-4" d="M714,329.88h3.3v-5.14h2.11v5.14h3.27v2h-3.27v11.27H717.3V331.84H714Z"/><path class="cls-4" d="M728.06,326.26a1.26,1.26,0,0,1-.39.95,1.28,1.28,0,0,1-.94.39,1.34,1.34,0,1,1,0-2.68,1.28,1.28,0,0,1,.94.39A1.26,1.26,0,0,1,728.06,326.26Zm-2.37,16.85V329.88h2.1v13.23Z"/><path class="cls-4" d="M743.32,341.31a6.94,6.94,0,0,1-9.77,0,6.92,6.92,0,1,1,9.77,0ZM741.83,333a4.73,4.73,0,1,0,1.42,3.4A4.62,4.62,0,0,0,741.83,333Z"/><path class="cls-4" d="M758.1,334.84a4,4,0,0,0-.59-2.21,2.13,2.13,0,0,0-1.94-.91,4.18,4.18,0,0,0-2.19.51,4,4,0,0,0-1.37,1.34,7.39,7.39,0,0,0-1,4v5.53H749V329.88h2.1v2.28a5.62,5.62,0,0,1,1.68-1.81,4.38,4.38,0,0,1,2.5-.74,5.44,5.44,0,0,1,2.28.41,4.21,4.21,0,0,1,1.48,1.11,5.53,5.53,0,0,1,1.2,3.71v8.27h-2.1Z"/></g></g></svg>