<svg xmlns="http://www.w3.org/2000/svg" viewBox="0 0 900 398.26"><defs><style>.cls-1{fill:none;}.cls-2{fill:#0d8543;}</style></defs><title>IRMA White Logo</title><g id="Layer_3" data-name="Layer 3"><rect class="cls-1" width="900" height="398.26"/><path class="cls-2" d="M160,114.51a12.89,12.89,0,1,1-3.78-9.16A12.47,12.47,0,0,1,160,114.51ZM137,277.43V149.54h20.35V277.43Z"/><path class="cls-2" d="M252.79,169.59a21.19,21.19,0,0,0-13.63,4.51,38.57,38.57,0,0,0-9.45,11,55.66,55.66,0,0,0-7.26,28.34v64H202.1V149.54h20.35V176l.87-5.24q10.22-23.83,31.68-23.83a32,32,0,0,1,12.79,2.62V176Q260.76,169.58,252.79,169.59Z"/><path class="cls-2" d="M454.68,196.91q0-19.83-12.5-27.75-4.35-2.78-13.37-2.77A29.86,29.86,0,0,0,412,171.63,39.18,39.18,0,0,0,399.46,185a51.93,51.93,0,0,0-3.34,7c.09,1.6.14,3.24.14,4.91v79.94H375.91V196.91q0-19.83-12.5-27.75-4.35-2.78-13.37-2.77a29.86,29.86,0,0,0-16.86,5.24A39.18,39.18,0,0,0,320.69,185q-6.22,10.88-7.85,26.41v65.44H292.49V149h20.35v20.38a52.34,52.34,0,0,1,14.39-16,38.82,38.82,0,0,1,23.39-7.26q13.38,0,21.51,4.21a40.11,40.11,0,0,1,13.52,11.19,46.19,46.19,0,0,1,5.37,8.9,52.58,52.58,0,0,1,15-17,38.82,38.82,0,0,1,23.39-7.26q13.38,0,21.51,4.21a40,40,0,0,1,13.52,11.19Q475,175.22,475,196.91v79.94H454.68Z"/><path class="cls-2" d="M616,277.43V255.59q-1.71,2.23-3.63,4.4-18.12,20.34-44.62,20.34T523.13,260q-17.6-19.76-17.59-46.51T523.13,167q18.12-20.35,44.61-20.35T612.36,167c1.28,1.43,2.49,2.9,3.63,4.39V149.54h20.35V277.43Zm-12.93-96.5a44,44,0,0,0-64.24,0,47.45,47.45,0,0,0,0,65.11,44,44,0,0,0,64.24,0,47.45,47.45,0,0,0,0-65.11Z"/><path class="cls-2" d="M138,338.68V318.24h2.11v20.44Z"/><path class="cls-2" d="M154.3,330.41a4,4,0,0,0-.59-2.2,2.11,2.11,0,0,0-1.94-.92,3.87,3.87,0,0,0-3.56,1.85,7.41,7.41,0,0,0-1,4v5.53h-2.1V325.45h2.1v2.28a5.54,5.54,0,0,1,1.69-1.81,4.32,4.32,0,0,1,2.49-.74,5.52,5.52,0,0,1,2.29.41,4.27,4.27,0,0,1,1.47,1.11,5.53,5.53,0,0,1,1.2,3.71v8.27h-2.1Z"/><path class="cls-2" d="M164.93,337.33c1.93,0,2.89-.72,2.89-2.16,0-.84-.69-1.49-2.07-1.93-.58-.2-1.21-.37-1.88-.53a10.26,10.26,0,0,1-1.89-.65,3.64,3.64,0,0,1-1.53-1.2,2.88,2.88,0,0,1-.51-1.71,3.44,3.44,0,0,1,1.39-3,5.42,5.42,0,0,1,3.3-1,6,6,0,0,1,3.2.8,4,4,0,0,1,1.69,2.78h-2.25a2.29,2.29,0,0,0-1-1.47,3.51,3.51,0,0,0-1.66-.36,3.23,3.23,0,0,0-1.69.42,1.44,1.44,0,0,0-.72,1.33,1.49,1.49,0,0,0,.6,1.31,5.22,5.22,0,0,0,1.46.68c.58.18,1.2.35,1.87.5a8.86,8.86,0,0,1,1.9.65,3.24,3.24,0,0,1,2,3.11,3.5,3.5,0,0,1-1.53,3.15,5.83,5.83,0,0,1-1.7.77,7.45,7.45,0,0,1-2,.25q-4.6,0-5.28-4.09h2.22a3,3,0,0,0,1.14,1.82A3.64,3.64,0,0,0,164.93,337.33Z"/><path class="cls-2" d="M171.91,325.45h3.31v-5.14h2.1v5.14h3.28v2h-3.28v11.27h-2.1V327.41h-3.31Z"/><path class="cls-2" d="M186.49,321.83a1.33,1.33,0,0,1-1.34,1.34,1.28,1.28,0,0,1-.94-.39,1.3,1.3,0,0,1-.39-.95,1.35,1.35,0,0,1,1.33-1.34,1.31,1.31,0,0,1,.95.4A1.28,1.28,0,0,1,186.49,321.83Zm-2.37,16.85V325.45h2.1v13.23Z"/><path class="cls-2" d="M189.71,325.45H193v-5.14h2.11v5.14h3.28v2h-3.28v11.27H193V327.41h-3.3Z"/><path class="cls-2" d="M206.48,339a4.33,4.33,0,0,1-3.47-1.46,5.64,5.64,0,0,1-1.25-3.77v-8.27h2.11v8.27a4,4,0,0,0,.58,2.21,2.13,2.13,0,0,0,1.94.92,3.89,3.89,0,0,0,3.49-1.55,7.81,7.81,0,0,0,1-4.31v-5.54H213v13.23h-2.1v-2.27A4.79,4.79,0,0,1,206.48,339Z"/><path class="cls-2" d="M215.92,325.45h3.31v-5.14h2.1v5.14h3.28v2h-3.28v11.27h-2.1V327.41h-3.31Z"/><path class="cls-2" d="M247.12,338.68v-2.26c-.12.16-.24.31-.37.46a6.12,6.12,0,0,1-9.23,0,7.27,7.27,0,0,1,0-9.62,6.1,6.1,0,0,1,9.23,0l.37.45V316.14h2.11v22.54Zm-1.33-10a4.56,4.56,0,0,0-6.65,0,4.9,4.9,0,0,0,0,6.73,4.54,4.54,0,0,0,6.65,0,4.92,4.92,0,0,0,0-6.73Z"/><path class="cls-2" d="M267.17,332.88H255.54a4.47,4.47,0,0,0,1.65,2.79,4.76,4.76,0,0,0,5.25.59,4.88,4.88,0,0,0,1.73-1.46h2.4a6.69,6.69,0,0,1-2.54,3,6.23,6.23,0,0,1-3.46,1.1,7.52,7.52,0,0,1-3-.54,7.31,7.31,0,0,1-2.2-1.47,6.58,6.58,0,0,1-2-4.87,6.91,6.91,0,0,1,6.91-6.92,6.76,6.76,0,0,1,4.82,2,6.27,6.27,0,0,1,2.09,4.72Zm-3.92-4.6a4.83,4.83,0,0,0-7.68,2.8H265A4.86,4.86,0,0,0,263.25,328.28Z"/><path class="cls-2" d="M290.91,328.87a6.42,6.42,0,0,1-4.06,1.71l6.3,8.1h-2.83l-6-8.09h-2.46v8.09h-2.1V318.24h6.55a6.5,6.5,0,0,1,4.59,1.73,5.8,5.8,0,0,1,1.9,4.43A5.87,5.87,0,0,1,290.91,328.87Zm-4.29-.29a3.85,3.85,0,0,0,2.92-1.2,4.26,4.26,0,0,0,1.17-3,4.07,4.07,0,0,0-1.11-2.94,4,4,0,0,0-3-1.16h-4.75v8.33Z"/><path class="cls-2" d="M299.16,321.83a1.34,1.34,0,1,1-2.68,0,1.28,1.28,0,0,1,.39-.94,1.33,1.33,0,0,1,1.9,0A1.28,1.28,0,0,1,299.16,321.83Zm-2.38,16.85V325.45h2.11v13.23Z"/><path class="cls-2" d="M308,337.33c1.92,0,2.89-.72,2.89-2.16,0-.84-.69-1.49-2.07-1.93-.58-.2-1.21-.37-1.88-.53a10.26,10.26,0,0,1-1.89-.65,3.64,3.64,0,0,1-1.53-1.2,2.88,2.88,0,0,1-.51-1.71,3.44,3.44,0,0,1,1.39-3,5.4,5.4,0,0,1,3.3-1,6,6,0,0,1,3.2.8,4,4,0,0,1,1.69,2.78h-2.25a2.32,2.32,0,0,0-1-1.47,3.55,3.55,0,0,0-1.67-.36,3.22,3.22,0,0,0-1.68.42,1.43,1.43,0,0,0-.73,1.33,1.49,1.49,0,0,0,.6,1.31,5.35,5.35,0,0,0,1.46.68c.59.18,1.21.35,1.88.5a8.86,8.86,0,0,1,1.9.65,3.24,3.24,0,0,1,2,3.11,3.5,3.5,0,0,1-1.53,3.15,5.83,5.83,0,0,1-1.7.77,7.51,7.51,0,0,1-2,.25q-4.61,0-5.29-4.09h2.23a3,3,0,0,0,1.13,1.82A3.65,3.65,0,0,0,308,337.33Z"/><path class="cls-2" d="M316.62,338.68V316.14h2.11v15.24l4.84-6h2.79l-5.44,6.44,5.8,6.82h-2.79l-5.2-6.35v6.35Z"/><path class="cls-2" d="M354.08,324.13,348,339.88l-6.17-15.75-3.15,14.55h-2.17l4.78-21.79L348,334.38l6.7-17.49,4.75,21.79h-2.14Z"/><path class="cls-2" d="M373,338.68v-2.26c-.12.16-.25.31-.38.46a6.12,6.12,0,0,1-9.23,0,7.27,7.27,0,0,1,0-9.62,6.1,6.1,0,0,1,9.23,0l.38.45v-2.26h2.1v13.23Zm-1.34-10a4.56,4.56,0,0,0-6.65,0,4.92,4.92,0,0,0,0,6.73,4.54,4.54,0,0,0,6.65,0,4.9,4.9,0,0,0,0-6.73Z"/><path class="cls-2" d="M389.25,330.41a4,4,0,0,0-.59-2.2,2.1,2.1,0,0,0-1.94-.92,3.87,3.87,0,0,0-3.56,1.85,7.41,7.41,0,0,0-1,4v5.53h-2.1V325.45h2.1v2.28a5.64,5.64,0,0,1,1.69-1.81,4.32,4.32,0,0,1,2.49-.74,5.49,5.49,0,0,1,2.29.41,4.27,4.27,0,0,1,1.47,1.11,5.53,5.53,0,0,1,1.2,3.71v8.27h-2.1Z"/><path class="cls-2" d="M406.44,338.68v-2.26c-.12.16-.24.31-.37.46a6.12,6.12,0,0,1-9.23,0,7.27,7.27,0,0,1,0-9.62,6.1,6.1,0,0,1,9.23,0l.37.45v-2.26h2.11v13.23Zm-1.33-10a4.56,4.56,0,0,0-6.65,0,4.9,4.9,0,0,0,0,6.73,4.54,4.54,0,0,0,6.65,0,4.92,4.92,0,0,0,0-6.73Z"/><path class="cls-2" d="M416.17,342.69a4.75,4.75,0,0,0,8.1-3.35v-2.88a4.32,4.32,0,0,1-.35.42,6,6,0,0,1-4.61,2.1,6,6,0,0,1-4.65-2.1,7.3,7.3,0,0,1,0-9.62,6,6,0,0,1,4.65-2.11,6.14,6.14,0,0,1,4.61,2.11c.13.14.25.28.35.41v-2.22h2.1v13.89a6.86,6.86,0,0,1-13.62,1.14h2.15A4.52,4.52,0,0,0,416.17,342.69Zm6.76-14a4.36,4.36,0,0,0-3.32-1.44,4.42,4.42,0,0,0-3.31,1.44,4.87,4.87,0,0,0,0,6.73,4.39,4.39,0,0,0,3.31,1.45,4.34,4.34,0,0,0,3.32-1.45,4.9,4.9,0,0,0,0-6.73Z"/><path class="cls-2" d="M444.32,332.88H432.69a4.47,4.47,0,0,0,1.65,2.79,4.74,4.74,0,0,0,5.24.59,4.8,4.8,0,0,0,1.73-1.46h2.41a6.69,6.69,0,0,1-2.54,3,6.25,6.25,0,0,1-3.46,1.1,7.6,7.6,0,0,1-3-.54,7.15,7.15,0,0,1-2.19-1.47,6.59,6.59,0,0,1-2-4.87,6.93,6.93,0,0,1,6.92-6.92,6.79,6.79,0,0,1,4.82,2,6.3,6.3,0,0,1,2.09,4.72Zm-3.92-4.6a4.83,4.83,0,0,0-7.68,2.8h9.37A4.85,4.85,0,0,0,440.4,328.28Z"/><path class="cls-2" d="M465.06,330.35a3.14,3.14,0,0,0-1.29-2.87,2.64,2.64,0,0,0-1.38-.28,3.09,3.09,0,0,0-1.75.54,4.06,4.06,0,0,0-1.29,1.38,5.47,5.47,0,0,0-.35.73c0,.16,0,.33,0,.5v8.27h-2.11v-8.27a3.14,3.14,0,0,0-1.29-2.87,2.64,2.64,0,0,0-1.38-.28,3.13,3.13,0,0,0-1.75.54,4.06,4.06,0,0,0-1.29,1.38,6.85,6.85,0,0,0-.81,2.73v6.77h-2.1V325.39h2.1v2.11a5.54,5.54,0,0,1,1.49-1.66,4,4,0,0,1,2.42-.75,4.84,4.84,0,0,1,2.22.44,4.17,4.17,0,0,1,1.4,1.16,5,5,0,0,1,.56.92,5.41,5.41,0,0,1,1.54-1.77,4,4,0,0,1,2.42-.75,4.85,4.85,0,0,1,2.23.44,4.17,4.17,0,0,1,1.4,1.16,5.83,5.83,0,0,1,1.09,3.66v8.27h-2.1Z"/><path class="cls-2" d="M484.66,332.88H473a4.47,4.47,0,0,0,1.65,2.79,4.73,4.73,0,0,0,3.07,1.12,4.88,4.88,0,0,0,3.9-2h2.41a6.69,6.69,0,0,1-2.54,3,6.25,6.25,0,0,1-3.46,1.1,7.52,7.52,0,0,1-3-.54,7.07,7.07,0,0,1-2.2-1.47,6.59,6.59,0,0,1-2-4.87,6.93,6.93,0,0,1,6.92-6.92,6.79,6.79,0,0,1,4.82,2,6.3,6.3,0,0,1,2.09,4.72Zm-3.92-4.6a4.83,4.83,0,0,0-7.68,2.8h9.38A4.91,4.91,0,0,0,480.74,328.28Z"/><path class="cls-2" d="M497.77,330.41a4,4,0,0,0-.59-2.2,2.11,2.11,0,0,0-1.94-.92,3.87,3.87,0,0,0-3.56,1.85,7.41,7.41,0,0,0-.95,4v5.53h-2.1V325.45h2.1v2.28a5.54,5.54,0,0,1,1.69-1.81,4.32,4.32,0,0,1,2.49-.74,5.44,5.44,0,0,1,2.28.41,4.21,4.21,0,0,1,1.48,1.11,5.53,5.53,0,0,1,1.2,3.71v8.27h-2.1Z"/><path class="cls-2" d="M502.79,325.45h3.3v-5.14h2.11v5.14h3.27v2H508.2v11.27h-2.11V327.41h-3.3Z"/><path class="cls-2" d="M536.39,332.88H524.76a4.47,4.47,0,0,0,1.65,2.79,4.76,4.76,0,0,0,5.25.59,4.88,4.88,0,0,0,1.73-1.46h2.4a6.69,6.69,0,0,1-2.54,3,6.22,6.22,0,0,1-3.45,1.1,7.53,7.53,0,0,1-3-.54,7.31,7.31,0,0,1-2.2-1.47,6.58,6.58,0,0,1-2-4.87,6.91,6.91,0,0,1,6.91-6.92,6.76,6.76,0,0,1,4.82,2,6.27,6.27,0,0,1,2.09,4.72Zm-3.92-4.6a4.83,4.83,0,0,0-7.68,2.8h9.38A4.86,4.86,0,0,0,532.47,328.28Z"/><path class="cls-2" d="M538.71,325.45H542v-5.14h2.1v5.14h3.28v2h-3.28v11.27H542V327.41h-3.31Z"/><path class="cls-2" d="M569.91,338.68v-2.26a5.45,5.45,0,0,1-.38.46,6.11,6.11,0,0,1-9.22,0,7.27,7.27,0,0,1,0-9.62,6.09,6.09,0,0,1,9.22,0c.14.15.26.3.38.45V316.14H572v22.54Zm-1.34-10a4.55,4.55,0,0,0-6.64,0,4.9,4.9,0,0,0,0,6.73,4.53,4.53,0,0,0,6.64,0,4.9,4.9,0,0,0,0-6.73Z"/><path class="cls-2" d="M590,332.88H578.33a4.47,4.47,0,0,0,1.65,2.79,4.76,4.76,0,0,0,5.25.59A5,5,0,0,0,587,334.8h2.4a6.69,6.69,0,0,1-2.54,3,6.23,6.23,0,0,1-3.46,1.1,7.52,7.52,0,0,1-3-.54,7.19,7.19,0,0,1-2.2-1.47,6.59,6.59,0,0,1-2-4.87,6.93,6.93,0,0,1,6.92-6.92,6.76,6.76,0,0,1,4.82,2,6.3,6.3,0,0,1,2.09,4.72Zm-3.92-4.6a4.83,4.83,0,0,0-7.68,2.8h9.38A4.86,4.86,0,0,0,586,328.28Z"/><path class="cls-2" d="M597.89,337.33c1.92,0,2.89-.72,2.89-2.16,0-.84-.69-1.49-2.07-1.93-.58-.2-1.21-.37-1.88-.53a10.26,10.26,0,0,1-1.89-.65,3.64,3.64,0,0,1-1.53-1.2,2.88,2.88,0,0,1-.51-1.71,3.44,3.44,0,0,1,1.39-3,5.42,5.42,0,0,1,3.3-1,6,6,0,0,1,3.2.8,4,4,0,0,1,1.69,2.78h-2.25a2.29,2.29,0,0,0-1-1.47,3.51,3.51,0,0,0-1.66-.36,3.23,3.23,0,0,0-1.69.42,1.44,1.44,0,0,0-.72,1.33,1.49,1.49,0,0,0,.6,1.31,5.22,5.22,0,0,0,1.46.68c.58.18,1.2.35,1.87.5a8.86,8.86,0,0,1,1.9.65,3.24,3.24,0,0,1,2,3.11,3.5,3.5,0,0,1-1.53,3.15,5.83,5.83,0,0,1-1.7.77,7.45,7.45,0,0,1-2,.25q-4.6,0-5.28-4.09h2.22a3,3,0,0,0,1.14,1.82A3.64,3.64,0,0,0,597.89,337.33Z"/><path class="cls-2" d="M628.86,338.68l-2.19-5.56h-9l-2.21,5.56H613.2l9-21.85,8.95,21.85Zm-3-7.51-3.71-9.41-3.73,9.41Z"/><path class="cls-2" d="M638.17,337.33c1.93,0,2.89-.72,2.89-2.16,0-.84-.69-1.49-2.07-1.93-.58-.2-1.21-.37-1.88-.53a10.26,10.26,0,0,1-1.89-.65,3.64,3.64,0,0,1-1.53-1.2,2.88,2.88,0,0,1-.51-1.71,3.44,3.44,0,0,1,1.39-3,5.45,5.45,0,0,1,3.31-1,5.94,5.94,0,0,1,3.19.8,4,4,0,0,1,1.7,2.78h-2.26a2.29,2.29,0,0,0-1-1.47,3.51,3.51,0,0,0-1.66-.36,3.23,3.23,0,0,0-1.69.42,1.44,1.44,0,0,0-.72,1.33A1.49,1.49,0,0,0,636,330a5.35,5.35,0,0,0,1.46.68c.58.18,1.21.35,1.87.5a8.86,8.86,0,0,1,1.9.65,3.24,3.24,0,0,1,2,3.11,3.5,3.5,0,0,1-1.53,3.15,5.83,5.83,0,0,1-1.7.77,7.45,7.45,0,0,1-2,.25c-3.06,0-4.83-1.36-5.28-4.09H635a3,3,0,0,0,1.14,1.82A3.64,3.64,0,0,0,638.17,337.33Z"/><path class="cls-2" d="M650.77,337.33q2.88,0,2.88-2.16c0-.84-.68-1.49-2.06-1.93-.58-.2-1.21-.37-1.88-.53a10.26,10.26,0,0,1-1.89-.65,3.64,3.64,0,0,1-1.53-1.2,2.88,2.88,0,0,1-.51-1.71,3.46,3.46,0,0,1,1.38-3,5.45,5.45,0,0,1,3.31-1,6,6,0,0,1,3.2.8,4,4,0,0,1,1.69,2.78H653.1a2.28,2.28,0,0,0-1-1.47,3.55,3.55,0,0,0-1.67-.36,3.26,3.26,0,0,0-1.69.42,1.44,1.44,0,0,0-.72,1.33,1.49,1.49,0,0,0,.6,1.31,5.35,5.35,0,0,0,1.46.68c.58.18,1.21.35,1.88.5a8.86,8.86,0,0,1,1.9.65,3.24,3.24,0,0,1,2,3.11,3.5,3.5,0,0,1-1.53,3.15,5.83,5.83,0,0,1-1.7.77,7.51,7.51,0,0,1-2,.25q-4.6,0-5.29-4.09h2.23a3,3,0,0,0,1.13,1.82A3.65,3.65,0,0,0,650.77,337.33Z"/><path class="cls-2" d="M664.12,339a4.33,4.33,0,0,1-3.47-1.46,5.64,5.64,0,0,1-1.25-3.77v-8.27h2.11v8.27a4,4,0,0,0,.58,2.21,2.13,2.13,0,0,0,1.94.92,3.86,3.86,0,0,0,3.48-1.55,7.72,7.72,0,0,0,1-4.31v-5.54h2.1v13.23h-2.1v-2.27A4.79,4.79,0,0,1,664.12,339Z"/><path class="cls-2" d="M680.46,327.53a2.19,2.19,0,0,0-1.41.46,3.89,3.89,0,0,0-1,1.15,5.73,5.73,0,0,0-.75,2.93v6.61h-2.11V325.45h2.11v2.74l.09-.54a3.47,3.47,0,0,1,3.27-2.47,3.36,3.36,0,0,1,1.33.27v2.74A2.3,2.3,0,0,0,680.46,327.53Z"/><path class="cls-2" d="M695.59,338.68v-2.26c-.12.16-.24.31-.37.46a6.12,6.12,0,0,1-9.23,0,7.27,7.27,0,0,1,0-9.62,6.1,6.1,0,0,1,9.23,0l.37.45v-2.26h2.11v13.23Zm-1.33-10a4.56,4.56,0,0,0-6.65,0,4.9,4.9,0,0,0,0,6.73,4.54,4.54,0,0,0,6.65,0,4.92,4.92,0,0,0,0-6.73Z"/><path class="cls-2" d="M711.86,330.41a4,4,0,0,0-.59-2.2,2.11,2.11,0,0,0-1.94-.92,3.87,3.87,0,0,0-3.56,1.85,7.41,7.41,0,0,0-.95,4v5.53h-2.1V325.45h2.1v2.28a5.54,5.54,0,0,1,1.69-1.81,4.32,4.32,0,0,1,2.49-.74,5.44,5.44,0,0,1,2.28.41,4.21,4.21,0,0,1,1.48,1.11,5.53,5.53,0,0,1,1.2,3.71v8.27h-2.1Z"/><path class="cls-2" d="M728.6,330.2a4.64,4.64,0,0,0-1.68-2,4.09,4.09,0,0,0-2.32-.78,4.91,4.91,0,0,0-2,.37,4.45,4.45,0,0,0-1.46,1,4.61,4.61,0,0,0-1.34,3.29,4.66,4.66,0,0,0,1.34,3.32,4.47,4.47,0,0,0,5.59.74,4.76,4.76,0,0,0,1.67-1.78h2.37a6.67,6.67,0,0,1-4.29,4.29,6.92,6.92,0,0,1-2.26.34,5.86,5.86,0,0,1-2.49-.56,6.66,6.66,0,0,1-2.14-1.5,6.8,6.8,0,0,1-2-4.85,6.71,6.71,0,0,1,2-4.84,6.46,6.46,0,0,1,4.81-2.05,6.54,6.54,0,0,1,4.11,1.42,6.76,6.76,0,0,1,2.39,3.6Z"/><path class="cls-2" d="M747.63,332.88H736a4.53,4.53,0,0,0,1.66,2.79,4.74,4.74,0,0,0,5.24.59,4.88,4.88,0,0,0,1.73-1.46H747a6.69,6.69,0,0,1-2.54,3,6.28,6.28,0,0,1-3.46,1.1,7.6,7.6,0,0,1-3-.54,7.15,7.15,0,0,1-2.19-1.47,6.59,6.59,0,0,1-2-4.87,6.93,6.93,0,0,1,6.91-6.92,6.8,6.8,0,0,1,4.83,2,6.3,6.3,0,0,1,2.09,4.72Zm-3.92-4.6a4.69,4.69,0,0,0-7.05,1.25,4.62,4.62,0,0,0-.64,1.55h9.38A4.85,4.85,0,0,0,743.71,328.28Z"/><path class="cls-2" d="M755.56,337.33q2.88,0,2.88-2.16c0-.84-.68-1.49-2.06-1.93-.58-.2-1.21-.37-1.88-.53a10.26,10.26,0,0,1-1.89-.65,3.64,3.64,0,0,1-1.53-1.2,2.88,2.88,0,0,1-.51-1.71,3.46,3.46,0,0,1,1.38-3,5.45,5.45,0,0,1,3.31-1,6,6,0,0,1,3.2.8,4,4,0,0,1,1.69,2.78H757.9a2.32,2.32,0,0,0-1-1.47,3.55,3.55,0,0,0-1.67-.36,3.26,3.26,0,0,0-1.69.42,1.44,1.44,0,0,0-.72,1.33,1.49,1.49,0,0,0,.6,1.31,5.35,5.35,0,0,0,1.46.68c.59.18,1.21.35,1.88.5a8.86,8.86,0,0,1,1.9.65,3.24,3.24,0,0,1,2,3.11,3.5,3.5,0,0,1-1.53,3.15,5.83,5.83,0,0,1-1.7.77,7.51,7.51,0,0,1-2,.25q-4.61,0-5.29-4.09h2.23a3,3,0,0,0,1.13,1.82A3.65,3.65,0,0,0,755.56,337.33Z"/><path class="cls-2" d="M726,227a167.31,167.31,0,0,1-10.93,59.67,15,15,0,0,0-5.29,1.12,269.08,269.08,0,0,0,8-45.09q1.1-12.18,1.11-24.63a272.55,272.55,0,0,0-5.7-55.56,268.6,268.6,0,0,0-8.44-31.09,166.54,166.54,0,0,1,15.91,53.28A167.65,167.65,0,0,1,726,227Z"/><circle class="cls-2" cx="699.58" cy="107.67" r="9.34"/><path class="cls-2" d="M698,98.27l-1.16,1.16c-.45-.11-.88-.22-1.31-.35A9.07,9.07,0,0,1,698,98.27Z"/><path class="cls-2" d="M698,98.27l-1.16,1.16c-.45-.11-.88-.22-1.31-.35A9.07,9.07,0,0,1,698,98.27Z"/><path class="cls-2" d="M684,115.69a39.56,39.56,0,0,1-30.51,11.25h0a39.54,39.54,0,0,1-4.56-.6,15.11,15.11,0,0,1-10.54-17.85,14.77,14.77,0,0,1,1.12-3.22A15.14,15.14,0,0,1,642.71,89a39.27,39.27,0,0,1,17.73-2.9,40,40,0,0,1,6.08.89,39.4,39.4,0,0,1,24.38,17A39.8,39.8,0,0,0,674,94.32a39.31,39.31,0,0,0-22.77.24,66.37,66.37,0,0,1,36.39,10l-29.91,1.56L687,111a60.28,60.28,0,0,1-31.65,7.62A38.61,38.61,0,0,0,684,115.69Z"/><path class="cls-2" d="M702,159h0a40.7,40.7,0,0,1-2.12,4.09,15.13,15.13,0,0,1-20.39,3.8,14.68,14.68,0,0,1-2.64-2.17,15.05,15.05,0,0,1-14.17-8.55A39.23,39.23,0,0,1,666,138.53a39.87,39.87,0,0,1,2.92-5.4,39.42,39.42,0,0,1,23-16.79,3.72,3.72,0,0,0,.45.33,37,37,0,0,0-21.55,34.07,60.27,60.27,0,0,1,20.87-30.61l-7.41,28.72,13.52-25.79a58.34,58.34,0,0,1-1.89,32.56,36.19,36.19,0,0,0,4.82-31.46A39.6,39.6,0,0,1,702,159Z"/><path class="cls-2" d="M745.43,147.87a15,15,0,0,1-3.1,1.43,15.13,15.13,0,0,1-13.89,9A39.29,39.29,0,0,1,714,147.56a40.25,40.25,0,0,1-3.58-5,39.38,39.38,0,0,1-5.69-22.64,35,35,0,0,0,23.55,25.63A57,57,0,0,1,707,116.39l24.27,16L711.87,111.6a56.52,56.52,0,0,1,29.78,12A34.85,34.85,0,0,0,722,110.26a39.54,39.54,0,0,1,26.2,13.91h0a37.66,37.66,0,0,1,2.74,3.7A15.12,15.12,0,0,1,745.43,147.87Z"/><path class="cls-2" d="M756.9,93.91a39.63,39.63,0,0,1-33.42,12.66,44,44,0,0,0,7-1.75,42.19,42.19,0,0,0,20.18-14.41,70.49,70.49,0,0,1-38,13.42l-.45-.19,25.43-19.85L708.56,97.61A65.26,65.26,0,0,1,732,70.87c-13.29,4.58-22.82,14.89-26.18,26.67A39.6,39.6,0,0,1,731,64.2h0a36.67,36.67,0,0,1,4.38-1.4,15.12,15.12,0,0,1,17.14,11.67,15.74,15.74,0,0,1,.35,3.39,15.16,15.16,0,0,1,4,16.06Z"/><path class="cls-2" d="M705.74,86.69a39,39,0,0,0,.26-4.61,38.22,38.22,0,0,0-6.46-21.49,64.26,64.26,0,0,1,.88,34.93c-.32.4-.65.79-1,1.18L690.1,69.84l3.33,28.57-.54-.19a59.19,59.19,0,0,1-15.46-27.33,37.9,37.9,0,0,0,8.48,24A39.54,39.54,0,0,1,667.22,67v0a36.6,36.6,0,0,1-.43-4.58,15.1,15.1,0,0,1,18.48-13.84,15.09,15.09,0,0,1,16.54-.47,39.22,39.22,0,0,1,6.74,16.65,39.93,39.93,0,0,1,.47,6.13A39.5,39.5,0,0,1,705.74,86.69Z"/></g></svg>